# xmcd
#
# Track frame offsets:
#	150
#	18931
#	35279
#	57104
#	73368
#	88050
#	104925
#	121436
#	137295
#	154361
#
# Disc length: 2457 seconds
# Revision: 0
# Processed by: cddbd v1.5.2PL0 Copyright (c) Steve Scherf et al.
# Submitted via: dBpowerAMP V12.0
#
DISCID=8b09970a
DTITLE=Never So - Never So
DYEAR=2007
DGENRE=Rock
TTITLE0=one lover too late
TTITLE1=some other time
TTITLE2=city
TTITLE3=fever 101
TTITLE4=stay here
TTITLE5=don't talk to strangers
TTITLE6=so young
TTITLE7=fantasy
TTITLE8=your eyes
TTITLE9=two ships
EXTD=
EXTT0=
EXTT1=
EXTT2=
EXTT3=
EXTT4=
EXTT5=
EXTT6=
EXTT7=
EXTT8=
EXTT9=
PLAYORDER=
